<?xml version="1.0" encoding="UTF-8"?>
<svg id="Layer_1" data-name="Layer 1" xmlns="http://www.w3.org/2000/svg" viewBox="0 0 499 499">
  <defs>
    <style>
      .cls-1, .cls-2 {
        fill: #fff;
      }

      .cls-2, .cls-3, .cls-4 {
        fill-rule: evenodd;
      }

      .cls-5, .cls-3 {
        fill: #ffeef9;
      }

      .cls-6, .cls-4 {
        fill: #f4f7f9;
      }

      .cls-7 {
        opacity: .25;
      }
    </style>
  </defs>
  <rect class="cls-1" width="499" height="499"/>
  <path class="cls-6" d="M253.72,425.77c-100.29,0-181.87-81.59-181.87-181.88S153.44,62.02,253.72,62.02s181.87,81.59,181.87,181.87-81.59,181.88-181.87,181.88Zm0-361.97c-99.3,0-180.09,80.79-180.09,180.09s80.79,180.09,180.09,180.09,180.09-80.79,180.09-180.09S353.02,63.8,253.72,63.8Z"/>
  <g>
    <path class="cls-2" d="M341.24,309.39c1.07,0,2.09,.19,3.03,.54,.43-.47,1.04-.76,1.73-.76,.32,0,.63,.06,.9,.18,.15-2.01,1.83-3.59,3.88-3.59,.89,0,1.71,.3,2.36,.8,.14-.2,.32-.37,.51-.51-.38-.66-.59-1.43-.59-2.25,0-1.27,.51-2.41,1.34-3.25,.83-.83,1.98-1.34,3.25-1.34h.02c.7-.37,1.49-.58,2.34-.58,.51,0,1.01,.08,1.48,.22,.21-.46,.57-.83,1.02-1.06-.12-.57-.19-1.16-.19-1.77,0-2.3,.93-4.38,2.44-5.89,1.51-1.51,3.59-2.44,5.89-2.44,.73,0,1.44,.09,2.12,.27,4.93,.07,8.89,4.09,8.89,9.03,0,.07,0,.14,0,.21,.44-.11,.89-.17,1.36-.17,.93,0,1.81,.23,2.59,.64,1.32-1.8,3.44-2.96,5.84-2.96,3.99,0,7.23,3.24,7.23,7.23,0,.79-.12,1.54-.36,2.25,.07,0,.15,0,.22,0,1.97,0,3.56,1.59,3.56,3.56,0,.23-.02,.46-.07,.68,.03,0,.05,0,.08,0,1.11,0,2.02,.88,2.05,1.99,.31-.06,.63-.09,.95-.09,1.28,0,2.48,.45,3.35,1.27,2.31,2.19-.21,2.76-2.65,2.76h-67.26c-2.54,0-6.16,.41-3.64-2.24,1.59-1.67,3.83-2.72,6.32-2.72h0Zm21.94-11.81c.13-.02,.26-.03,.39-.03h.07c0-.18-.02-.36-.02-.55,0-3.97,2.56-7.34,6.12-8.55-1.74,.21-3.3,1-4.48,2.18-1.38,1.38-2.24,3.29-2.24,5.4,0,.53,.05,1.05,.16,1.55h0Zm-8.91,8.15c.24-.08,.48-.12,.75-.12,.13,0,.25,0,.38,.03-.26-.61-.4-1.27-.4-1.98,0-1.4,.57-2.67,1.49-3.58-.6,.19-1.14,.52-1.58,.96-.71,.7-1.14,1.68-1.14,2.75,0,.7,.19,1.36,.51,1.93Z"/>
    <path class="cls-2" d="M297.01,127.47c1.06,0,2.09,.19,3.03,.54,.43-.47,1.04-.77,1.73-.77,.32,0,.62,.06,.9,.18,.15-2.01,1.83-3.59,3.88-3.59,.89,0,1.71,.3,2.37,.8,.14-.2,.31-.37,.51-.51-.37-.66-.59-1.43-.59-2.24,0-1.27,.51-2.41,1.34-3.25,.83-.83,1.98-1.34,3.25-1.34h.01c.7-.37,1.49-.58,2.34-.58,.52,0,1.02,.08,1.48,.22,.21-.46,.57-.83,1.02-1.06-.12-.57-.19-1.16-.19-1.77,0-2.3,.93-4.38,2.44-5.89,1.51-1.51,3.59-2.44,5.89-2.44,.73,0,1.44,.09,2.12,.27,4.92,.07,8.89,4.09,8.89,9.03,0,.07,0,.14,0,.21,.44-.11,.89-.17,1.36-.17,.93,0,1.81,.23,2.59,.64,1.32-1.8,3.44-2.96,5.84-2.96,4,0,7.23,3.24,7.23,7.23,0,.78-.13,1.54-.36,2.25,.07,0,.14,0,.22,0,1.97,0,3.56,1.59,3.56,3.56,0,.23-.02,.46-.06,.68,.02,0,.05,0,.07,0,1.11,0,2.02,.88,2.05,1.99,.31-.06,.63-.09,.95-.09,1.28,0,2.49,.45,3.35,1.27,2.31,2.19-.21,2.76-2.65,2.76h-67.26c-2.54,0-6.16,.42-3.64-2.24,1.59-1.67,3.83-2.72,6.32-2.72h0Zm21.94-11.81c.12-.02,.25-.03,.39-.03h.07c-.01-.18-.02-.36-.02-.55,0-3.97,2.56-7.34,6.12-8.55-1.74,.21-3.3,1-4.48,2.18-1.38,1.38-2.24,3.29-2.24,5.4,0,.53,.05,1.05,.16,1.55h0Zm-8.91,8.15c.23-.08,.48-.12,.75-.12,.13,0,.25,.01,.37,.03-.26-.61-.4-1.28-.4-1.97,0-1.4,.57-2.66,1.49-3.58-.6,.19-1.14,.52-1.58,.96-.71,.71-1.14,1.68-1.14,2.76,0,.7,.18,1.36,.51,1.93Z"/>
  </g>
  <g>
    <path class="cls-2" d="M231.06,256.24s-14.56,2.02-23.99,15.6c-9.43,13.58-40.55,57.15-40.55,57.15l65.82,1.13-1.29-73.88Z"/>
    <path class="cls-2" d="M269.32,220.76s-.78,3.82-1.45,7.1c-.67,3.29-.57,13.39-.57,13.39-.51,2.74-1.02,9.49-5,9.35-6.77-.24,4.19,23.4,13.25,25.95,10.48,2.94,32.47-9.17,44.51-16.33,1.51-.9,.03-5.08,1.29-5.66,0,0-5.79-2.2-6.34-7.56-.55-5.36,1.5-24.8,1.5-24.8l-47.2-1.43Z"/>
    <path class="cls-2" d="M269.32,220.76s-.78,3.82-1.45,7.1c-.67,3.29-.57,13.39-.57,13.39-.22,1.18-.44,3.09-.93,4.87,4.3,3.75,9.03,7.67,11.52,9.08,3.15,1.78,7.09,2.61,10.98,2.6,3.89,0,7.83-.82,10.98-2.6,3.22-1.82,10.16-7.82,15.09-12.23,.19-7.65,1.57-20.78,1.57-20.78l-47.2-1.43Z"/>
    <path class="cls-2" d="M321.37,254.55l37.84,12.96s-32.01,48.28-16.32,89.68l1.78,33.82-7.23,16.7c-26.04,14.5-56.02,22.78-87.94,22.78-12.6,0-24.9-1.29-36.77-3.74l1.37-14.81-4.12-52.34c-7.16-31.58-1.76-50.55,21.09-103.35l31.25-5.65c1.5,19.43,32.12,21.75,59.06,3.95Z"/>
    <path class="cls-2" d="M321.37,254.55l37.84,12.96s-7.78,11.74-13.78,28.59c-7.07,2.31-11.1,5.5-11.1,5.5,4.3-14.51-1.21-23.33-10.76-27.84-4.46-2.11-9.92-4.77-10.06-5.04-.11-.2-7.68-1.83-16.1-3.58,7.75-1.82,16.02-5.32,23.97-10.58h0Zm-102.25,30.43c2.68-6.89,2.05-11.27,5.69-19.76,.8-1.88,5.4-7.01,6.26-8.97l31.25-5.65c.37,4.76,2.49,8.49,5.87,11.16-8.12,1.56-21.89,4.34-30.79,6.87-12.83,3.64-17.93,15.53-18.27,16.36Z"/>
    <path class="cls-2" d="M321.37,254.55l8.27,2.83c-30.33,30.06-76.21,21.82-74.32-5.52l6.99-1.26c1.5,19.43,32.12,21.75,59.06,3.95Z"/>
    <path class="cls-2" d="M333.57,192.81s4.87-3.85,7.55-3.08c2.69,.77,4.95,7.62,3.71,12.27-1.24,4.65-9.41,20.08-17.28,12.21-7.87-7.87,6.01-21.4,6.01-21.4Z"/>
    <path class="cls-2" d="M329.58,197.21c-.37,.27-.56,.8-.43,1.2,.12,.35,.47,.47,.81,.3h0s-.21,14.96,2.22,13.06c2.43-1.89,4.95-3.68,6.48-7.21,1.52-3.53-.94-7.47,.34-8.22,1.23-.72,2.1,.92,2.18,1.07h0s0,0,0,0h0c.67,1.41,.82,2.95,.82,2.96,.05,.44,.4,.67,.8,.5,.39-.17,.67-.67,.62-1.11,0-.02-.55-5.81-4.39-6.32-3.66-.49-9.44,3.76-9.46,3.77Z"/>
    <path class="cls-2" d="M250.43,185.8s-2.97-4.19-5.29-4.21c-2.31-.01-5.71,4.91-5.81,8.89-.1,3.98,2.79,18.15,10.88,13.74,8.09-4.42,.21-18.42,.21-18.42Z"/>
    <path class="cls-2" d="M251.84,190.07c.23,.3,.26,.77,.06,1.05-.18,.25-.48,.27-.71,.05h0s-3.32,11.94-4.81,9.86c-1.49-2.07-3.08-4.08-3.47-7.24-.39-3.16,2.49-5.71,1.64-6.62-.8-.86-1.88,.24-1.98,.34h0s0,0,0,0h0c-.86,.97-1.33,2.15-1.34,2.16-.14,.34-.48,.44-.75,.21-.27-.23-.38-.69-.24-1.03,0-.01,1.79-4.49,4.96-4,3.03,.47,6.63,5.19,6.64,5.2Z"/>
    <path class="cls-2" d="M298.15,117.9c-56.58-5.19-53.29,42.5-52.36,80.77,1.45,59.57,72.33,67.18,86.39,9.27,9.03-37.2,22.36-83.1-34.03-90.04Z"/>
    <path class="cls-2" d="M245.6,169.78c-.19,4.57-.21,9.22-.15,13.85,.59,.3,1.24,.59,1.94,.85,11.7,4.36,19.56-9.8,19.56-9.8l2.16-5.77s-15.24,.63-23.5,.87h0Zm90.78,20.56c.76-3.42,1.46-6.85,2.06-10.26-3.53-5.55-9.57-11.25-9.57-11.25l-8.46-3.33s-4.39,24.68,13.65,24.95c.87,.01,1.64-.03,2.33-.11Z"/>
    <path class="cls-2" d="M333.14,204c1.24-5.04,2.6-10.66,3.71-15.83,7.5-34.73,7.77-60.68-39.11-66.44-47.04-4.31-52.28,21.1-52.32,56.63,0,5.3,.13,11.07,.27,16.26h0s6.13-4.99,6.12-16.13c0,0,11.68,1.34,8.92-18.34-2.77-19.68,22.06-18.43,34.73-17.07,12.67,1.36,37.2,5.41,30.32,24.05-6.88,18.64,4.82,19.81,4.82,19.81-2.38,10.89,2.55,17.06,2.55,17.06h0Z"/>
    <path class="cls-2" d="M320.4,165.21s-3.66,2.26-6.38,8.65c-2.72,6.39-6.76,12.13-14.91,11.26-8.15-.88-10.55-9.34-10.55-9.34,0,0-10.33,13.82-21.6-1.1,0,0-6.01,7.16-16.86,5.59-36.46-5.28,.03-79.77,54.15-70.8,20.82,3.45,31.44,15.56,33.2,23.04-.24-13.9,12.11-10.56,7.24,8.72,28.42,14.13-22.14,78.64-24.28,23.98Z"/>
    <path class="cls-2" d="M256.09,124.32c-1.49,8.44-.68,27.14,37.81,21.65l.91-.13c.66-.1,1.02-.16,.97,.06h0c-.02,.08-.09,.12-.17,.11h0c-.21,.07-.6,.16-1.22,.3l-.48,.11c-2.75,.62-8.11,1.71-14.02,2.33-3.81,.4-7.84,.61-11.54,.36-4.53-.3-8.09-1.3-10.88-2.56-2.8-1.26-4.83-2.79-6.32-4.16-.29-.27-.51-.47-.73-.67h0s0,0,0,0c-2.5-2.32-3.69-3.43-6.68-3.06,3.28-5.08,7.45-10,12.35-14.34h0Zm43.37,20.79s13.26-4.21,20.29-.53c.07,.04,.1,.12,.06,.19-.03,.06-.11,.09-.18,.06h0s-2.87-1.15-4.99,.38c-1.82,1.31-3.28,.92-5.21,.41-.45-.12-.93-.25-1.43-.36-1.37-.3-2.84-.46-4.33-.44-1.38,.02-2.77,.19-4.12,.55h0s0,0,0,0c-.07,.02-.15-.02-.17-.1-.02-.07,.02-.15,.1-.17h0Z"/>
    <g>
      <path class="cls-2" d="M280.67,195.18c-.02,.09-.06,.18-.11,.26l-.28,.46h0s0,0,0,0c-1.41,2.33-5.93,9.8-5.94,10.63,.03,.6,2.19,2.43,2.66,2.79,1.09,.83,3.76-.15,4.72-.5,4.15-1.51-2.66,3.59-4.31,3.09-1.32-.4-2.15-1.04-3.12-1.97-.82-.78-1.94-2.22-2-3.35-.06-1.17,4.56-9.05,6.15-11.6,1.5-2.52,1.54-4.19,1.24-5.17-.21-.67-.18-1.66,.68-.39,.72,1.06,1.58,3.08,.31,5.76Z"/>
      <path class="cls-2" d="M296.22,180.34c.07,.71,.28,1.05,.43,1.21,.05-.96,.71-1.64,1.75-2.11,6.79-2.58,17.6-.47,22.56,3.23h0s.06,.09,.05,.15c-.02,.07-.09,.1-.15,.08-3.63-1.39-7.3-1.76-10.57-1.61-5.25,.24-9.47,1.79-10.93,2.58-.51,.28-1.13,.56-1.75,.57-.64,0-1.27-.27-1.8-1.12-.17-.28-.3-.56-.38-.82-.21-.62-.2-1.18-.12-1.6,.09-.44,.27-.74,.39-.82,.02,0,.03-.02,.05-.02h0s0,0,0,0h0c.36-.12,.46,.27,.46,.28h0v.02Z"/>
      <path class="cls-2" d="M273.65,177.81c-.21,.64-.46,.92-.62,1.03,.17-.91-.22-1.69-.97-2.35-4.99-3.91-14.32-4.35-19.2-2.02h0s-.07,.07-.07,.13c0,.07,.05,.11,.11,.1,3.28-.48,6.37,0,9.02,.86,4.25,1.39,7.37,3.78,8.38,4.83,.36,.37,.8,.78,1.31,.92,.52,.15,1.1,.04,1.72-.64,.2-.23,.37-.45,.5-.68,.3-.54,.42-1.06,.45-1.47,.03-.42-.06-.74-.14-.85-.01-.01-.02-.02-.03-.03h0s0,0,0,0c-.27-.19-.44,.15-.44,.15h0v.02Z"/>
      <path class="cls-2" d="M297.08,193.17c2.84-3.65,5.77-5.35,8.47-5.73,1.86-.26,3.6,.11,5.14,.91,1.53,.8,2.86,2.02,3.89,3.49,1.88,2.67,2.75,6.13,2.04,9.2-.02,.09-.11,.15-.21,.13-.09-.02-.14-.1-.14-.18,.18-2.19-.61-4.54-2.05-6.48-1.09-1.47-2.56-2.72-4.26-3.49-1.69-.77-3.62-1.07-5.65-.66-2.35,.47-4.83,1.9-7.24,4.66-.58,.66-1.08,1.39-1.48,2.15h0c-.39,.74-.68,1.52-.85,2.29-.02,.09-.11,.15-.21,.13-.09-.02-.15-.1-.14-.18,.12-1.07,.42-2.15,.86-3.19,.46-1.08,1.08-2.12,1.8-3.04Z"/>
      <path class="cls-2" d="M299.02,191.79c.45-.5,.91-.96,1.36-1.38,1.67-.85,3.7-1.19,5.81-.84,4.75,.79,8.05,4.81,7.37,8.98-1.12,6.94-10.84,7.16-15.24,3.23-.79-.86-1.37-1.85-1.71-2.92-.48-2.36,.6-5.04,2.4-7.06Z"/>
      <g>
        <path class="cls-6" d="M316.53,204.56c-.06,0-.12-.01-.19-.04-.72-.33-1.05-.78-1.09-.83-.14-.2-.1-.48,.1-.62,.2-.14,.48-.1,.62,.1,.01,.01,.25,.32,.74,.54,.22,.1,.32,.37,.22,.59-.08,.16-.24,.26-.4,.26Z"/>
        <path class="cls-6" d="M314.21,205.75c-.12,0-.23-.04-.32-.13-.46-.46-.59-.91-.6-.96-.06-.24,.08-.48,.32-.54,.24-.06,.48,.08,.54,.32,0,.02,.09,.28,.37,.56,.17,.17,.17,.46,0,.63-.09,.09-.2,.13-.31,.13Z"/>
      </g>
      <path class="cls-2" d="M302.6,193.12c.81,.05,1.42,.77,1.37,1.6-.06,.83-.76,1.45-1.58,1.4s-1.43-.77-1.37-1.59c.06-.83,.76-1.45,1.58-1.4Z"/>
      <g>
        <path class="cls-2" d="M265.6,181.61c2.24,1.16,4.29,3.6,5.68,7.79,.35,1.06,.58,2.19,.66,3.32,.08,1.08,.02,2.16-.2,3.17-.02,.08-.09,.14-.18,.13-.09-.01-.15-.09-.14-.18,.08-.76,.06-1.55-.06-2.35-.12-.82-.34-1.63-.65-2.41-1.28-3.24-3.02-5.29-4.92-6.44-1.64-.99-3.42-1.3-5.12-1.11-1.71,.19-3.36,.87-4.75,1.89-1.84,1.33-3.22,3.23-3.72,5.28-.02,.08-.09,.13-.17,.12-.09,0-.15-.09-.14-.18,.29-3.01,2.09-5.9,4.52-7.76,1.33-1.02,2.86-1.74,4.43-2,1.58-.26,3.22-.07,4.76,.73Z"/>
        <path class="cls-2" d="M268.59,186.88c-.24-.6-.5-1.15-.78-1.67-1.2-1.28-2.87-2.21-4.81-2.53-4.37-.72-8.45,1.94-9.11,5.95-1.09,6.66,7.32,9.81,12.32,7.56,.94-.54,1.75-1.27,2.36-2.15,1.12-2,.98-4.78,.01-7.16Z"/>
        <g>
          <path class="cls-6" d="M251.02,193.91c-.22,0-.42-.17-.44-.39-.03-.25,.15-.46,.39-.49,.49-.06,.78-.26,.79-.26,.2-.15,.48-.1,.62,.09,.14,.2,.11,.47-.09,.62-.05,.04-.48,.35-1.22,.44-.02,0-.03,0-.05,0Z"/>
          <path class="cls-6" d="M252.69,195.7c-.16,0-.32-.09-.4-.24-.12-.22-.03-.49,.19-.6,.33-.17,.48-.39,.48-.39,.13-.2,.41-.26,.61-.13,.21,.13,.27,.4,.14,.61-.02,.04-.27,.42-.82,.7-.07,.04-.14,.05-.21,.05Z"/>
        </g>
        <path class="cls-2" d="M259.59,186.76c.77,.05,1.36,.74,1.3,1.53-.06,.79-.73,1.39-1.5,1.34-.77-.05-1.36-.74-1.3-1.53,.06-.79,.73-1.39,1.5-1.34Z"/>
      </g>
      <g>
        <path class="cls-2" d="M288.91,221.03c.52-.13,.84-.67,.72-1.2-.12-.53-.65-.86-1.17-.73,0,0-2.86,1.17-6.46,.92-1.27-.08-1.33,1.39-.06,1.47,3.89,.27,6.95-.47,6.96-.47Z"/>
        <path class="cls-2" d="M291.81,215.3c.47-.26,.69-.9,.49-1.43-.21-.53-.76-.76-1.24-.5-.02,.01-7.33,4.05-17.11,2.27-1.21-.22-1.33,1.13-.12,1.35,8.97,2.41,17.96-1.67,17.98-1.69Z"/>
        <path class="cls-2" d="M291.56,211.57c-.23-.35-.82-.44-1.3-.22-.49,.23-.7,.69-.47,1.04,0,0,1.7,1.78,2.18,4.48,.17,.95,1.61,.61,1.43-.34-.52-2.91-1.83-4.95-1.84-4.96Z"/>
      </g>
    </g>
    <path class="cls-2" d="M335.55,397.17l29.22-8.14c9.76-8.08,18.66-17.16,26.55-27.09-3.78-19.49-5.99-53.28-9.78-71.04-3.79-17.76-22.34-23.38-22.34-23.38-26.22,.98-30.69,50.98-20.5,69.75l4.02,43.11-7.17,16.8Z"/>
    <g>
      <path class="cls-1" d="M260.01,205.77s0,0,0,0c-.57,0-1.14-.03-1.72-.08-4.83-.45-9.19-2.76-12.29-6.5-3.09-3.74-4.55-8.45-4.09-13.28,.93-9.95,9.64-17.34,19.78-16.38,9.97,.94,17.32,9.81,16.38,19.78-.88,9.38-8.65,16.46-18.06,16.46Zm-.04-35.07c-8.77,0-15.99,6.59-16.82,15.33-.42,4.5,.93,8.89,3.81,12.37,2.88,3.48,6.95,5.63,11.44,6.05,9.45,.88,17.55-5.99,18.42-15.25,.87-9.28-5.97-17.55-15.25-18.42-.54-.05-1.07-.08-1.6-.08Z"/>
      <path class="cls-1" d="M306.33,215.4s0,0,0,0c-.68,0-1.37-.03-2.05-.1-5.75-.54-10.95-3.29-14.63-7.74-3.68-4.45-5.42-10.06-4.87-15.81,1.05-11.17,10.29-19.6,21.5-19.6,.68,0,1.37,.03,2.05,.1,11.87,1.12,20.62,11.68,19.5,23.55-1.05,11.17-10.3,19.6-21.5,19.6Zm-.05-42c-10.56,0-19.27,7.94-20.26,18.47-.51,5.42,1.12,10.71,4.59,14.9,3.47,4.19,8.37,6.78,13.79,7.29,.64,.06,1.29,.09,1.93,.09,10.56,0,19.27-7.94,20.26-18.47,1.05-11.19-7.2-21.14-18.38-22.19-.64-.06-1.29-.09-1.93-.09Z"/>
      <path class="cls-1" d="M286.92,186.06c-.08,0-.17-.02-.25-.05-1.44-.64-2.97-1.05-4.56-1.19-1.58-.15-3.17-.04-4.7,.32-.34,.08-.67-.13-.75-.46-.08-.34,.13-.67,.46-.75,1.67-.39,3.38-.51,5.11-.35,1.72,.16,3.38,.6,4.95,1.29,.31,.14,.45,.51,.31,.82-.1,.23-.33,.37-.57,.37Z"/>
      <path class="cls-1" d="M291.37,201.89c-.16,0-.32-.09-.4-.24-1.5-2.92-2.13-6.2-1.82-9.48,.21-2.2,.82-4.3,1.81-6.24,.11-.22,.38-.31,.6-.19,.22,.11,.3,.38,.19,.6-.94,1.84-1.52,3.83-1.72,5.92-.29,3.12,.3,6.22,1.73,8.99,.11,.22,.03,.49-.19,.6-.07,.03-.14,.05-.2,.05Zm.98-17c-.08,0-.17-.02-.25-.08-.21-.14-.26-.41-.12-.62,.33-.5,.7-.99,1.1-1.46,.16-.19,.44-.21,.63-.06,.19,.16,.21,.44,.06,.63-.38,.45-.73,.92-1.04,1.39-.09,.13-.23,.2-.37,.2Z"/>
      <path class="cls-1" d="M246.27,190.95c-.2,0-.39-.14-.43-.35-.08-.38-.15-.76-.2-1.14-.03-.24,.14-.47,.39-.5,.24-.03,.47,.14,.5,.39,.05,.36,.11,.72,.18,1.07,.05,.24-.1,.48-.34,.53-.03,0-.06,.01-.09,.01Zm-.3-2.76c-.24,0-.44-.2-.44-.44,0-.5,.02-1,.06-1.5,.34-3.67,2.05-7.04,4.82-9.48,.18-.16,.46-.15,.63,.04,.16,.19,.14,.47-.04,.63-2.59,2.29-4.19,5.45-4.52,8.89-.05,.47-.06,.94-.06,1.41,0,.25-.2,.45-.44,.45h0Z"/>
    </g>
    <path class="cls-2" d="M161.85,243.42s1.8,7.07,1.09,13.43c-3.97,35.83-17.35,44.12-21.4,73.57-1.69,12.34,7.11,29.54,12.25,35.64,5.14,6.1,19.16,2.24,27.86-17.69,8.71-19.93-1.43-70.28,7.2-96.22l-27.01-8.73Z"/>
    <path class="cls-2" d="M161.85,243.42s1.8,7.07,1.09,13.43c-.09,.82-.19,1.61-.29,2.4,4.76,3.52,12.37,6,20.64-3.64,1.36-1.59,2.16-3.06,2.52-4.44l-23.96-7.75Z"/>
    <g>
      <path class="cls-2" d="M136.75,216.75c-2.07,2.32-6.75,7.57-8.27,9.34-4.04,4.7,1.05,7.91,6.66,4.04-.2,.91-1.3,5.9-1.84,8.26-1.42,6.24,5.88,5.63,7.85-2.89l1.02-4.37,3.79-3.66,8.13,2.38c.92,11.88,9.74,15.54,9.74,15.54,0,.21,.02,.42,.04,.63,1.34,17.12,32.99,17.9,28.61-11.97-2.81-19.13-9.69-35.56-12.8-56.03-2.12-14.02-11.91-6.35-11.52,2.01,.36,7.77,3.2,28.79,3.2,28.79,.18,1.35-2.33,1.64-3.52,.46-1.19-1.19-6.35-7.54-9.19-10.42-2.83-2.88-8.13,.05-8.13,.05l-7.45,4.07s-7.32,4.2-10.63,6.07c-6.27,3.54-2.8,8.72,4.3,7.71Z"/>
      <path class="cls-1" d="M163.85,245.83s-.02,0-.03,0c-.25-.02-.43-.23-.41-.47,0-.06,.44-5.57,5.73-7.11-1.04-3.2-1.22-6.43-.48-9.45,.83-3.42,2.84-6.31,5.36-7.73,1.95-1.1,3.56-1.38,4.81-.83,1.41,.62,1.77,2.06,1.79,2.12,.19,7.88,6.24,14.73,6.3,14.8,.16,.18,.15,.47-.04,.63-.18,.16-.46,.15-.63-.03-.26-.29-6.32-7.16-6.51-15.27h0s-.3-1.01-1.27-1.43c-.96-.41-2.34-.14-4,.79-2.31,1.3-4.15,3.98-4.93,7.16-1.1,4.5-.04,9.53,2.98,14.14,.13,.21,.08,.48-.13,.62-.2,.13-.48,.08-.62-.13-.97-1.48-1.75-3.01-2.32-4.55-4.73,1.34-5.12,6.12-5.14,6.33-.02,.24-.21,.41-.44,.41Zm-28.7-15.26c-.12,0-.24-.05-.33-.14-.17-.18-.15-.46,.03-.63,.02-.02,1.91-1.75,3.7-3.73,1.79-1.97,6.59-6.82,6.77-7l2.97-3.19c.17-.18,.45-.19,.63-.02,.18,.17,.19,.45,.02,.63l-2.5,2.69,10.61,3.53c.98-1.31,2.25-2.75,3.88-4.28l-8.16-8.86c-1.67,.92-9.69,5.34-11.49,6.32-2.07,1.13-4.4,1.31-4.5,1.31-.24,0-.46-.17-.48-.41s.17-.46,.41-.48c.02,0,2.24-.17,4.13-1.21,2.01-1.1,11.79-6.49,11.79-6.49,.18-.1,.4-.06,.54,.09l8.4,9.12c2.43-2.18,5.6-4.53,9.74-6.92,.22-.12,.49-.05,.61,.16,.12,.21,.05,.49-.16,.61-16.25,9.37-17.23,18.12-17.24,18.21-.02,.25-.23,.43-.48,.4-.25-.02-.42-.24-.4-.48,.02-.19,.29-2.67,2.85-6.34l-10.74-3.57c-.93,.94-4.96,5.03-6.56,6.78-1.82,2-3.74,3.77-3.76,3.78-.09,.08-.19,.12-.3,.12Zm10.82-2.66c-.11,0-.22-.04-.31-.12-.18-.17-.18-.45,0-.63l1.6-1.65c.17-.18,.45-.18,.63-.01,.18,.17,.18,.45,.01,.63l-1.59,1.65c-.09,.09-.21,.13-.32,.13Z"/>
    </g>
    <path class="cls-2" d="M381.29,373.53c-3.35-2.06-7.58-3.48-12.66-3.78-16.66-.98-47.7,30.07-68.45,31.61l2.21,21.26c30.5-9.31,57.58-26.46,78.9-49.1Z"/>
    <path class="cls-2" d="M114.81,317.3h174.65c1.87,0,3.7,1.53,4.08,3.4l19.55,98.28c-19.06,7.16-39.65,11.18-61.15,11.47h0s-114.62,.01-114.62,.01c-1.87,0-3.7-1.53-4.08-3.4l-21.16-106.37c-.37-1.87,.85-3.4,2.72-3.4Z"/>
    <path class="cls-2" d="M288.77,320.7l19.2,96.53,.67,3.36c1.49-.51,2.97-1.05,4.44-1.6l-19.55-98.28c-.37-1.87-2.21-3.4-4.08-3.4h-4.76c1.87,0,3.7,1.53,4.08,3.4Z"/>
    <g>
      <g>
        <path class="cls-3" d="M114.81,317.3h15.75l102.58,113.17h-23.68l-96.78-106.77-.6-3c-.37-1.87,.85-3.4,2.72-3.4Z"/>
        <path class="cls-3" d="M146.7,317.3h49.5l97.62,107.7c-13.43,3.38-27.45,5.26-41.88,5.45h0s-2.66,.01-2.66,.01l-102.58-113.17Z"/>
      </g>
      <path class="cls-2" d="M205.68,347.67c13.02,0,25.51,11.74,27.89,26.22,2.38,14.48-6.24,26.22-19.26,26.22s-25.51-11.74-27.89-26.22c-2.38-14.48,6.24-26.22,19.26-26.22Z"/>
      <g>
        <path class="cls-2" d="M219.36,391.93l-24.86-8.26c-1.39-.46-2.15-1.97-1.69-3.36,.07-.22,.17-.43,.29-.61h0l16.26-25.07c.8-1.24,2.45-1.59,3.69-.78,.58,.38,.97,.95,1.13,1.57l8.71,33.37c.37,1.42-.49,2.88-1.91,3.25-.56,.15-1.12,.1-1.62-.09Z"/>
        <path class="cls-2" d="M226.36,387.21l-26.03,2.88c-.85,.1-1.66-.16-2.28-.66-.62-.5-1.05-1.23-1.15-2.08-.01-.13-.02-.26-.02-.4h0c0-.13,0-.24,.02-.35,0-.02,0-.04,0-.05l4.29-29.57c.12-.85,.58-1.57,1.22-2.05h0c.64-.47,1.46-.71,2.31-.58,.39,.06,.76,.19,1.09,.37,.34,.19,.64,.45,.88,.74h0s21.83,26.64,21.83,26.64c.02,.02,.04,.04,.05,.06,.53,.66,.74,1.47,.66,2.25-.08,.79-.46,1.55-1.12,2.09-.01,.01-.03,.02-.04,.03-.25,.2-.52,.35-.8,.46-.3,.12-.61,.19-.92,.21h0Zm-26.12,2l26.03-2.88h.02c.23-.02,.45-.07,.67-.15,.2-.08,.39-.19,.57-.33l.02-.02c.48-.39,.75-.93,.81-1.49,.06-.56-.1-1.15-.49-1.63l-21.85-26.66h0c-.17-.22-.38-.4-.63-.54-.23-.13-.49-.22-.77-.26-.61-.09-1.19,.08-1.65,.42h0c-.46,.34-.78,.85-.87,1.46l-4.29,29.53v.05c-.02,.09-.02,.19-.03,.27h0c0,.1,0,.2,.02,.3,.07,.61,.38,1.13,.82,1.48,.45,.35,1.02,.54,1.63,.47Z"/>
      </g>
    </g>
    <path class="cls-1" d="M125.86,390.38c-.21,0-.39-.15-.44-.36l-13.77-69.24c-.21-1.05,.02-2.04,.63-2.79,.6-.73,1.5-1.14,2.53-1.14h87.45c.25,0,.44,.2,.44,.45s-.2,.45-.44,.45H114.81c-.76,0-1.41,.29-1.84,.81-.45,.54-.6,1.27-.45,2.05l13.77,69.24c.05,.24-.11,.48-.35,.53-.03,0-.06,0-.09,0Zm157.31-142.71s-.04,0-.06,0c-18.26-2.47-37.02-18.58-37.76-48.99l-.02-.73c0-.25,.19-.45,.43-.46,.26-.03,.45,.19,.45,.43l.02,.73c.73,29.89,19.1,45.71,36.99,48.13,.24,.03,.42,.26,.38,.5-.03,.22-.22,.39-.44,.39Zm-38.42-68.43c-.06,0-.12-.01-.18-.04-8.76-3.79-11.77-13.59-8.06-26.21,6.5-22.07,33.67-49.64,67.79-43.98,9.13,1.51,17.26,4.88,23.5,9.75,.19,.15,.23,.43,.08,.63-.15,.19-.43,.23-.63,.08-6.12-4.77-14.11-8.08-23.1-9.57-33.61-5.58-60.39,21.59-66.79,43.35-3.58,12.14-.75,21.54,7.56,25.14,.23,.1,.33,.36,.23,.59-.07,.17-.24,.27-.41,.27Z"/>
  </g>
  <g class="cls-7">
    <path class="cls-1" d="M59.26,124.24H210.42c4.06,0,7.36,3.3,7.36,7.36v106.09c0,4.06-3.3,7.36-7.36,7.36H59.26c-4.06,0-7.37-3.3-7.37-7.37v-106.09c0-4.06,3.3-7.36,7.36-7.36Z"/>
  </g>
  <path class="cls-6" d="M68.78,245.95h-9.51c-4.55,0-8.26-3.7-8.26-8.25v-106.09c0-4.55,3.7-8.25,8.26-8.25h57.8c.49,0,.89,.4,.89,.89s-.4,.89-.89,.89H59.26c-3.57,0-6.47,2.9-6.47,6.47v106.09c0,3.57,2.9,6.47,6.47,6.47h9.51c.49,0,.89,.4,.89,.89s-.4,.89-.89,.89Z"/>
  <g>
    <path class="cls-2" d="M170.4,181.4c2.23,0,4.06-1.82,4.06-4.06s-1.82-4.05-4.06-4.05-4.06,1.82-4.06,4.05,1.82,4.06,4.06,4.06Z"/>
    <path class="cls-1" d="M170.4,192.76c-8.5,0-15.41-6.91-15.41-15.41s6.92-15.41,15.41-15.41,15.41,6.91,15.41,15.41-6.92,15.41-15.41,15.41Zm0-29.05c-7.52,0-13.63,6.12-13.63,13.63s6.11,13.63,13.63,13.63,13.63-6.11,13.63-13.63-6.11-13.63-13.63-13.63Z"/>
    <path class="cls-1" d="M166.64,192.27c-.08,0-.15,0-.23-.03-8.21-2.2-13.1-10.67-10.9-18.88,.13-.48,.61-.76,1.09-.63,.48,.13,.76,.62,.63,1.09-1.95,7.26,2.38,14.75,9.64,16.7,.48,.13,.76,.62,.63,1.09-.11,.4-.47,.66-.86,.66Zm17.79-10.27c-.08,0-.15,0-.23-.03-.48-.13-.76-.62-.63-1.09,1.94-7.26-2.38-14.75-9.64-16.7-.47-.13-.76-.62-.63-1.09,.13-.48,.61-.76,1.09-.63,8.21,2.2,13.1,10.67,10.9,18.88-.11,.4-.47,.66-.86,.66Z"/>
    <path class="cls-1" d="M170.4,198.32c-11.56,0-20.97-9.41-20.97-20.97s9.41-20.97,20.97-20.97,20.97,9.41,20.97,20.97-9.41,20.97-20.97,20.97Zm0-40.16c-10.58,0-19.19,8.61-19.19,19.19s8.61,19.19,19.19,19.19,19.19-8.61,19.19-19.19-8.61-19.19-19.19-19.19Z"/>
    <path class="cls-1" d="M167.12,198.05s-.1,0-.15-.01c-.67-.11-1.34-.26-2-.43-.48-.13-.76-.62-.63-1.09,.13-.48,.61-.76,1.09-.63,.6,.16,1.22,.29,1.83,.4,.48,.08,.81,.54,.73,1.03-.07,.44-.45,.74-.88,.74Zm17.99-6.14c-.22,0-.43-.08-.61-.24-.36-.33-.38-.9-.04-1.26,2.12-2.28,3.66-5.08,4.47-8.1,.13-.48,.61-.76,1.09-.63,.47,.13,.76,.62,.63,1.09-.88,3.3-2.58,6.36-4.89,8.85-.17,.19-.41,.28-.65,.28Zm-34.11-18.87c-.08,0-.16,0-.23-.03-.48-.13-.76-.62-.63-1.09,1.77-6.59,6.65-11.92,13.06-14.27,.46-.17,.97,.07,1.14,.53,.17,.46-.07,.97-.53,1.14-5.87,2.15-10.34,7.03-11.96,13.06-.11,.4-.47,.66-.86,.66Zm24.59-14.2c-.08,0-.15,0-.23-.03-2.25-.6-4.56-.79-6.86-.56-.49,.05-.93-.31-.97-.8-.05-.49,.31-.93,.8-.97,2.51-.25,5.04-.04,7.5,.62,.47,.13,.76,.62,.63,1.09-.11,.4-.46,.66-.86,.66Z"/>
  </g>
  <path class="cls-1" d="M210.42,245.95H68.78c-.49,0-.89-.4-.89-.89s.4-.89,.89-.89H210.42c3.57,0,6.47-2.9,6.47-6.47v-106.09c0-3.57-2.9-6.47-6.47-6.47H117.06c-.49,0-.89-.4-.89-.89s.4-.89,.89-.89h93.36c4.55,0,8.25,3.7,8.25,8.25v106.09c0,4.55-3.7,8.25-8.25,8.25Z"/>
  <g>
    <g>
      <g>
        <polygon class="cls-2" points="80.35 210.62 96.83 204.1 80.35 197.59 63.87 204.1 80.35 210.62"/>
        <path class="cls-1" d="M80.35,211.51c-.11,0-.22-.02-.33-.06l-16.48-6.52c-.34-.13-.56-.46-.56-.83s.22-.69,.56-.83l16.48-6.52c.21-.08,.44-.08,.66,0l16.48,6.52c.34,.14,.56,.46,.56,.83s-.22,.7-.56,.83l-16.48,6.52c-.11,.04-.22,.06-.33,.06Zm-14.06-7.41l14.06,5.56,14.06-5.56-14.06-5.56-14.06,5.56Z"/>
      </g>
      <g>
        <polygon class="cls-2" points="63.87 204.1 80.35 197.59 80.35 175.38 63.87 181.89 63.87 204.1"/>
        <path class="cls-1" d="M63.87,204.99c-.18,0-.35-.05-.5-.15-.24-.17-.39-.44-.39-.74v-22.21c0-.37,.22-.69,.56-.83l16.48-6.52c.28-.11,.58-.07,.83,.09,.25,.17,.39,.44,.39,.74v22.21c0,.37-.22,.69-.56,.83l-16.48,6.52c-.11,.04-.22,.06-.33,.06Zm.89-22.49v20.29l14.7-5.81v-20.29l-14.7,5.81Z"/>
      </g>
      <g>
        <polygon class="cls-4" points="96.83 204.1 80.35 197.59 80.35 175.38 96.83 181.89 96.83 204.1"/>
        <path class="cls-1" d="M96.83,204.99c-.11,0-.22-.02-.33-.06l-16.48-6.52c-.34-.13-.56-.46-.56-.83v-22.21c0-.29,.15-.57,.39-.74,.24-.17,.55-.2,.83-.09l16.48,6.52c.34,.13,.56,.46,.56,.83v22.21c0,.3-.15,.57-.39,.74-.15,.1-.33,.15-.5,.15Zm-15.59-8.01l14.7,5.81v-20.29l-14.7-5.81v20.29Z"/>
      </g>
    </g>
    <g>
      <g>
        <polygon class="cls-4" points="117.45 177.13 133.93 170.62 117.45 164.1 100.97 170.62 117.45 177.13"/>
        <path class="cls-1" d="M117.45,178.03c-.11,0-.22-.02-.33-.06l-16.48-6.52c-.34-.13-.56-.46-.56-.83s.22-.69,.56-.83l16.48-6.52c.21-.08,.45-.08,.65,0l16.48,6.52c.34,.13,.56,.46,.56,.83s-.22,.69-.56,.83l-16.48,6.52c-.1,.04-.22,.06-.33,.06Zm-14.06-7.41l14.06,5.56,14.06-5.56-14.06-5.56-14.06,5.56Z"/>
      </g>
      <g>
        <polygon class="cls-2" points="100.97 170.62 117.45 164.1 117.45 141.89 100.97 148.41 100.97 170.62"/>
        <path class="cls-1" d="M100.97,171.51c-.18,0-.35-.05-.5-.15-.24-.17-.39-.44-.39-.74v-22.21c0-.37,.22-.69,.56-.83l16.48-6.52c.28-.11,.58-.07,.83,.09,.24,.17,.39,.44,.39,.74v22.21c0,.37-.22,.7-.56,.83l-16.48,6.52c-.11,.04-.22,.06-.33,.06Zm.89-22.49v20.29l14.7-5.81v-20.29l-14.7,5.81Z"/>
      </g>
      <g>
        <polygon class="cls-2" points="133.93 170.62 117.45 164.1 117.45 141.89 133.93 148.41 133.93 170.62"/>
        <path class="cls-1" d="M133.93,171.51c-.11,0-.22-.02-.33-.06l-16.48-6.52c-.34-.13-.56-.46-.56-.83v-22.21c0-.3,.15-.57,.39-.74,.25-.17,.55-.2,.83-.09l16.48,6.52c.34,.13,.56,.46,.56,.83v22.21c0,.3-.14,.57-.39,.74-.15,.1-.33,.15-.5,.15Zm-15.59-8.01l14.7,5.81v-20.29l-14.7-5.81v20.29Z"/>
      </g>
    </g>
    <path class="cls-1" d="M112.03,220.38h-26.26c-3.45,0-6.09-2.59-6.15-6.03l-.16-10.23c0-.49,.38-.9,.88-.9h.01c.49,0,.88,.39,.89,.88l.16,10.23c.04,2.48,1.88,4.28,4.37,4.28h26.26c2.5,0,4.53-2.03,4.53-4.53v-43.45c0-.49,.4-.89,.89-.89s.89,.4,.89,.89v43.45c0,3.48-2.83,6.31-6.31,6.31Zm-31.59-42.68h0c-.49,0-.89-.4-.89-.89l.07-13.75c.02-3.62,2.78-6.57,6.15-6.57h15.2c.49,0,.89,.4,.89,.89s-.4,.89-.89,.89h-15.2c-2.35,0-4.35,2.2-4.37,4.79l-.07,13.75c0,.49-.4,.88-.89,.88Z"/>
    <g>
      <path class="cls-2" d="M80.35,206.24c1.18,0,2.13-.96,2.13-2.13s-.96-2.13-2.13-2.13-2.13,.96-2.13,2.13,.96,2.13,2.13,2.13Z"/>
      <path class="cls-1" d="M80.35,207.13c-1.67,0-3.03-1.36-3.03-3.03s1.36-3.02,3.03-3.02,3.03,1.36,3.03,3.02-1.36,3.03-3.03,3.03Zm0-4.27c-.69,0-1.25,.56-1.25,1.24s.56,1.24,1.25,1.24,1.24-.56,1.24-1.24-.56-1.24-1.24-1.24Z"/>
    </g>
    <g>
      <path class="cls-2" d="M117.45,172.75c1.18,0,2.13-.96,2.13-2.14s-.96-2.13-2.13-2.13-2.13,.96-2.13,2.13,.96,2.14,2.13,2.14Z"/>
      <path class="cls-1" d="M117.45,173.64c-1.67,0-3.03-1.36-3.03-3.03s1.36-3.03,3.03-3.03,3.03,1.36,3.03,3.03-1.36,3.03-3.03,3.03Zm0-4.27c-.69,0-1.24,.56-1.24,1.24s.56,1.25,1.24,1.25,1.24-.56,1.24-1.25-.56-1.24-1.24-1.24Z"/>
    </g>
  </g>
  <path class="cls-1" d="M145,156.5h0c-.49,0-.89-.4-.89-.9l.07-13.75c.02-3.62,2.77-6.57,6.15-6.57h15.2c.49,0,.89,.4,.89,.89s-.4,.89-.89,.89h-15.2c-2.35,0-4.35,2.19-4.36,4.79l-.07,13.75c0,.49-.4,.89-.89,.89Z"/>
  <path class="cls-1" d="M203.17,238.34c-.49,0-.89-.4-.89-.89s.4-.89,.89-.89c2.36,0,4.36-2.19,4.37-4.79l.07-81.28c0-.49,.4-.89,.89-.89h0c.49,0,.89,.4,.89,.89l-.07,81.28c0,3.62-2.76,6.57-6.15,6.57Z"/>
  <g>
    <path class="cls-2" d="M145,157.18c.86,0,1.57-.7,1.57-1.57s-.71-1.57-1.57-1.57-1.57,.7-1.57,1.57,.7,1.57,1.57,1.57Z"/>
    <path class="cls-1" d="M145,158.07c-1.35,0-2.46-1.1-2.46-2.46s1.1-2.46,2.46-2.46,2.46,1.1,2.46,2.46-1.1,2.46-2.46,2.46Zm0-3.13c-.37,0-.67,.3-.67,.68s.3,.68,.67,.68,.68-.3,.68-.68-.3-.68-.68-.68Z"/>
  </g>
  <g>
    <path class="cls-2" d="M165.52,137.75c.86,0,1.57-.7,1.57-1.57s-.71-1.57-1.57-1.57-1.57,.7-1.57,1.57,.7,1.57,1.57,1.57Z"/>
    <path class="cls-1" d="M165.52,138.64c-1.36,0-2.46-1.1-2.46-2.46s1.1-2.46,2.46-2.46,2.46,1.1,2.46,2.46-1.1,2.46-2.46,2.46Zm0-3.13c-.37,0-.67,.3-.67,.68s.3,.68,.67,.68,.68-.3,.68-.68-.3-.68-.68-.68Z"/>
  </g>
  <g>
    <path class="cls-2" d="M208.5,152.06c.86,0,1.57-.7,1.57-1.57s-.7-1.57-1.57-1.57-1.57,.7-1.57,1.57,.7,1.57,1.57,1.57Z"/>
    <path class="cls-1" d="M208.5,152.95c-1.35,0-2.46-1.1-2.46-2.46s1.1-2.46,2.46-2.46,2.46,1.1,2.46,2.46-1.1,2.46-2.46,2.46Zm0-3.13c-.37,0-.68,.3-.68,.68s.3,.68,.68,.68,.68-.3,.68-.68-.3-.68-.68-.68Z"/>
  </g>
  <g>
    <path class="cls-2" d="M203.17,239.01c.86,0,1.57-.7,1.57-1.57s-.71-1.57-1.57-1.57-1.57,.7-1.57,1.57,.7,1.57,1.57,1.57Z"/>
    <path class="cls-1" d="M203.17,239.91c-1.35,0-2.46-1.1-2.46-2.46s1.1-2.46,2.46-2.46,2.46,1.1,2.46,2.46-1.1,2.46-2.46,2.46Zm0-3.13c-.37,0-.68,.3-.68,.68s.3,.67,.68,.67,.68-.3,.68-.67-.3-.68-.68-.68Z"/>
  </g>
  <g>
    <path class="cls-2" d="M402.87,250.1c21.85,0,39.67-17.82,39.67-39.67s-17.82-39.67-39.67-39.67-39.67,17.82-39.67,39.67,17.82,39.67,39.67,39.67Z"/>
    <path class="cls-1" d="M402.87,250.99c-22.37,0-40.56-18.2-40.56-40.56s18.19-40.56,40.56-40.56,40.56,18.2,40.56,40.56-18.2,40.56-40.56,40.56Zm0-79.34c-21.38,0-38.78,17.4-38.78,38.78s17.4,38.78,38.78,38.78,38.78-17.4,38.78-38.78-17.4-38.78-38.78-38.78Z"/>
  </g>
  <g>
    <path class="cls-5" d="M402.87,244c-8.61,0-17.17-3.34-23.69-9.87-6.33-6.33-9.82-14.75-9.82-23.7s3.49-17.37,9.82-23.7c.17-.17,.46-.17,.63,0,.18,.17,.18,.46,0,.63-6.16,6.16-9.55,14.35-9.55,23.07s3.39,16.91,9.55,23.07c11.37,11.37,29.07,12.81,42.1,3.43,.2-.14,.48-.1,.62,.1,.14,.2,.1,.48-.1,.62-5.91,4.25-12.75,6.34-19.55,6.34Zm23.39-9.73c-.12,0-.23-.04-.32-.13-.17-.17-.17-.46,0-.63,6.16-6.16,9.56-14.36,9.56-23.07s-3.39-16.91-9.56-23.07c-11.37-11.36-29.07-12.81-42.1-3.44-.2,.14-.48,.1-.62-.1-.14-.2-.1-.48,.1-.62,13.38-9.63,31.57-8.15,43.25,3.53,6.33,6.33,9.82,14.75,9.82,23.7s-3.49,17.37-9.82,23.7c-.09,.09-.2,.13-.31,.13Z"/>
    <path class="cls-3" d="M427.59,235.15c-.74,.73-1.93,.73-2.66,0-.74-.74-.74-1.93,0-2.66,.74-.74,1.93-.74,2.66,0,.73,.74,.73,1.93,0,2.66Z"/>
    <path class="cls-3" d="M380.82,188.38c-.73,.74-1.93,.74-2.66,0-.73-.74-.73-1.93,0-2.66,.74-.74,1.93-.74,2.66,0,.74,.74,.74,1.93,0,2.66Z"/>
  </g>
  <g class="cls-7">
    <path class="cls-1" d="M95.9,272.07h70.97c1.1,0,2,.9,2,2v28.82c0,1.1-.9,2-2,2H95.9c-1.1,0-2-.9-2-2v-28.82c0-1.1,.9-2,2-2Z"/>
  </g>
  <path class="cls-1" d="M166.87,305.78H95.9c-1.59,0-2.89-1.3-2.89-2.89v-28.82c0-1.59,1.3-2.89,2.89-2.89h70.97c1.59,0,2.89,1.3,2.89,2.89v28.82c0,1.59-1.3,2.89-2.89,2.89Zm-70.97-32.82c-.61,0-1.11,.5-1.11,1.11v28.82c0,.61,.5,1.11,1.11,1.11h70.97c.61,0,1.11-.5,1.11-1.11v-28.82c0-.61-.5-1.11-1.11-1.11H95.9Z"/>
  <g>
    <path class="cls-1" d="M100.22,293.5h0c-.49,0-.89-.4-.88-.9l.05-10.58c.01-2.9,2.23-5.25,4.93-5.25h11.69c.49,0,.89,.4,.89,.89s-.4,.89-.89,.89h-11.69c-1.7,0-3.14,1.59-3.15,3.48l-.05,10.58c0,.49-.4,.89-.89,.89Z"/>
    <path class="cls-1" d="M158.45,300.19h-11.69c-.49,0-.89-.4-.89-.89s.4-.89,.89-.89h11.69c1.7,0,3.14-1.59,3.15-3.48l.06-10.58c0-.49,.4-.89,.89-.89h0c.49,0,.89,.4,.89,.9l-.06,10.58c-.01,2.9-2.23,5.25-4.93,5.25Z"/>
  </g>
  <g>
    <path class="cls-1" d="M131.38,295.03c-.25,0-.45-.2-.45-.45v-2.97c0-.25,.2-.45,.45-.45s.45,.2,.45,.45v2.97c0,.25-.2,.45-.45,.45Zm-16.76-.38c-.25,0-.45-.2-.45-.45v-11.43c0-.25,.2-.45,.45-.45s.45,.2,.45,.45v11.43c0,.25-.2,.45-.45,.45Zm21.86-1.4c-.25,0-.45-.2-.45-.45v-4.24c0-.25,.2-.45,.45-.45s.45,.2,.45,.45v4.24c0,.25-.2,.45-.45,.45Zm-10.2,0c-.25,0-.45-.2-.45-.45v-1.48c0-.25,.2-.45,.45-.45s.45,.2,.45,.45v1.48c0,.25-.2,.45-.45,.45Zm-6.57-2.17c-.25,0-.45-.2-.45-.45v-4.29c0-.25,.2-.45,.45-.45s.45,.2,.45,.45v4.29c0,.25-.2,.45-.45,.45Zm11.66-.98c-.25,0-.45-.2-.45-.45v-7.26c0-.25,.2-.45,.45-.45s.45,.2,.45,.45v7.26c0,.25-.2,.45-.45,.45Zm-5.1-.29c-.25,0-.45-.2-.45-.45v-5.19c0-.25,.2-.45,.45-.45s.45,.2,.45,.45v5.19c0,.25-.2,.45-.45,.45Zm10.2-2.76c-.25,0-.45-.2-.45-.45v-2.44c0-.25,.2-.45,.45-.45s.45,.2,.45,.45v2.44c0,.25-.2,.45-.45,.45Z"/>
    <path class="cls-1" d="M150.7,295.2s0,0-.01,0h-.21c-1.33,0-4.4,.02-9.9-6.31,0,0,0,0,0,0-5.13-5.9-7.81-5.89-8.95-5.88h-.23s-.23,0-.23,0c-1.14,.01-3.82-.02-8.95,5.88t0,0c-5.5,6.33-8.58,6.3-9.9,6.31h-.21c-.35,.04-.63-.26-.64-.61,0-.35,.26-.63,.61-.64h.25c1.16,.02,3.83,.01,8.95-5.88h0c5.5-6.33,8.59-6.33,9.9-6.31h.21s.01,0,.02,0h.23c1.33,0,4.4-.01,9.9,6.31h0c5.13,5.9,7.79,5.88,8.95,5.88h.25c.35,0,.62,.29,.61,.64,0,.34-.29,.61-.62,.61Z"/>
    <path class="cls-1" d="M131.38,295.2h0s-.01,0-.02,0h-.21c-1.31,0-4.4,.02-9.9-6.31h0c-5.13-5.9-7.82-5.89-8.95-5.88h-.25c-.34,0-.62-.29-.61-.64,0-.34,.29-.66,.64-.61h.21c1.35,.01,4.4-.01,9.9,6.31t0,0c5.12,5.9,7.79,5.88,8.95,5.88h.23s.23,0,.23,0c1.18,0,3.83,.01,8.95-5.88,0,0,0,0,0,0,5.5-6.33,8.59-6.32,9.9-6.31h.21c.37-.05,.63,.26,.64,.61,0,.34-.26,.63-.61,.64h-.25c-1.13,.02-3.83-.01-8.95,5.88h0c-5.5,6.33-8.59,6.31-9.9,6.31h-.21s0,0-.02,0Z"/>
  </g>
  <g>
    <g>
      <g>
        <polygon class="cls-2" points="187.32 102.27 182.96 102.27 185.14 105.79 187.32 102.27"/>
        <path class="cls-1" d="M185.14,106.23c-.15,0-.3-.08-.38-.21l-2.18-3.51c-.09-.14-.09-.31,0-.45,.08-.14,.23-.23,.39-.23h4.35c.16,0,.31,.09,.39,.23,.08,.14,.08,.31,0,.45l-2.18,3.51c-.08,.13-.23,.21-.38,.21Zm-1.38-3.51l1.38,2.22,1.38-2.22h-2.75Z"/>
      </g>
      <path class="cls-1" d="M189.32,100.51s-.01,0-.02,0h-4.35c-.16,0-.31-.09-.39-.23-.08-.14-.08-.31,0-.45l2.18-3.51c.16-.26,.59-.26,.76,0l2.12,3.41c.09,.08,.15,.2,.15,.33,0,.25-.2,.45-.45,.45Zm-3.57-.89h2.75l-1.38-2.22-1.38,2.22Z"/>
    </g>
    <g>
      <g>
        <polygon class="cls-2" points="406.48 282.59 402.13 282.59 404.31 286.1 406.48 282.59"/>
        <path class="cls-1" d="M404.31,286.54c-.15,0-.3-.08-.38-.21l-2.18-3.51c-.09-.14-.09-.31,0-.45,.08-.14,.23-.23,.39-.23h4.35c.16,0,.31,.09,.39,.23,.08,.14,.08,.31,0,.45l-2.18,3.51c-.08,.13-.23,.21-.38,.21Zm-1.38-3.51l1.38,2.22,1.38-2.22h-2.75Z"/>
      </g>
      <path class="cls-1" d="M408.48,280.83h-4.38c-.16,0-.31-.09-.39-.23-.08-.14-.07-.31,.01-.45l2.18-3.51c.16-.26,.59-.26,.76,0l2.12,3.41c.09,.08,.15,.2,.15,.33,0,.25-.2,.45-.45,.45Zm-3.57-.89h2.75l-1.38-2.22-1.37,2.22Z"/>
    </g>
    <g>
      <g>
        <polygon class="cls-2" points="234.85 235.81 230.5 235.81 232.67 239.32 234.85 235.81"/>
        <path class="cls-1" d="M232.67,239.77c-.15,0-.3-.08-.38-.21l-2.18-3.51c-.09-.14-.09-.31-.01-.45,.08-.14,.23-.23,.39-.23h4.35c.16,0,.31,.09,.39,.23,.08,.14,.07,.31,0,.45l-2.18,3.51c-.08,.13-.22,.21-.38,.21Zm-1.38-3.51l1.38,2.22,1.38-2.22h-2.75Z"/>
      </g>
      <path class="cls-1" d="M236.85,234.05h-4.38c-.16,0-.31-.09-.39-.23-.08-.14-.07-.31,0-.45l2.18-3.51c.16-.26,.59-.26,.76,0l2.12,3.41c.09,.08,.15,.2,.15,.33,0,.25-.2,.45-.44,.45Zm-3.58-.89h2.75l-1.38-2.22-1.38,2.22Z"/>
    </g>
  </g>
  <g>
    <g>
      <path class="cls-2" d="M385.94,212.38c-1.05,1.18-3.44,3.86-4.21,4.76-2.06,2.4,.53,4.03,3.4,2.06-.1,.46-.67,3.01-.94,4.22-.73,3.18,3,2.87,4-1.48l.52-2.23,1.93-1.86,4.15,1.21c.47,6.06,4.97,7.93,4.97,7.93,0,.11,0,.22,.02,.33,.68,8.73,16.82,9.13,14.59-6.11-1.43-9.76-4.94-18.13-6.53-28.57-1.08-7.15-6.07-3.24-5.87,1.02,.19,3.96,1.63,14.68,1.63,14.68,.09,.69-1.19,.84-1.79,.23-.61-.6-3.24-3.84-4.68-5.31-1.45-1.47-4.15,.02-4.15,.02l-3.8,2.07s-3.74,2.14-5.42,3.09c-3.2,1.8-1.43,4.45,2.19,3.93Z"/>
      <path class="cls-1" d="M406.75,233.82c-3.44,0-7.09-2.22-7.43-6.47,0-.02,0-.05,0-.07-.99-.5-4.43-2.62-4.96-7.87l-3.61-1.05-1.65,1.59-.49,2.1c-.6,2.59-2.17,3.95-3.42,3.95-.47,0-.89-.19-1.17-.55-.27-.34-.54-.99-.28-2.12,.18-.82,.5-2.25,.72-3.23-1.61,.75-3.29,.45-3.78-.62-.2-.44-.38-1.36,.7-2.61,.63-.73,2.32-2.64,3.5-3.96-1.66-.04-2.91-.77-3.2-1.87-.13-.5-.22-1.8,1.84-2.96,1.69-.95,5.42-3.09,5.42-3.09l3.81-2.08c.05-.03,1.33-.73,2.66-.73,.83,0,1.51,.26,2.02,.78,.87,.88,2.15,2.38,3.18,3.59,.68,.8,1.27,1.49,1.5,1.72,.15,.15,.41,.25,.67,.25,.23,0,.35-.08,.37-.1-.02-.11-1.45-10.79-1.64-14.73-.07-1.6,.53-3.28,1.59-4.39,.65-.68,1.41-1.06,2.13-1.06,.89,0,2.47,.56,3.04,4.33,.79,5.23,2.08,9.99,3.34,14.59,1.27,4.69,2.47,9.11,3.19,13.98,.79,5.35-.7,8.38-2.09,9.98-1.48,1.71-3.65,2.69-5.96,2.69Zm-16.12-16.42s.08,0,.12,.02l4.15,1.21c.18,.05,.31,.21,.32,.39,.44,5.7,4.53,7.48,4.7,7.55,.16,.07,.27,.22,.27,.4,0,.1,0,.2,.02,.3,.29,3.71,3.51,5.65,6.54,5.65,2.08,0,3.96-.85,5.28-2.38,1.26-1.46,2.62-4.26,1.88-9.27-.71-4.82-1.9-9.22-3.17-13.88-1.26-4.63-2.56-9.41-3.35-14.69-.35-2.27-1.13-3.58-2.16-3.58-.48,0-1.01,.28-1.49,.78-.88,.92-1.41,2.38-1.34,3.73,.18,3.9,1.61,14.54,1.63,14.64,.04,.26-.04,.52-.21,.71-.48,.55-1.74,.49-2.34-.11-.26-.26-.83-.93-1.55-1.77-1.02-1.19-2.29-2.68-3.14-3.55-.33-.34-.8-.51-1.38-.51-1.1,0-2.22,.61-2.24,.62l-3.8,2.07h0s-3.73,2.14-5.42,3.09c-1.05,.59-1.58,1.32-1.41,1.96,.16,.6,.99,1.21,2.49,1.21h0c.26,0,.54-.02,.83-.06,.18-.03,.37,.06,.45,.23,.09,.16,.06,.37-.06,.51-1.05,1.18-3.44,3.86-4.21,4.75-.55,.64-.75,1.24-.56,1.66,.34,.75,1.99,.69,3.37-.26,.15-.1,.35-.11,.5,0,.15,.1,.23,.29,.19,.47-.13,.59-.67,3.04-.94,4.22-.14,.61-.1,1.11,.11,1.37,.11,.14,.27,.21,.47,.21,.7,0,2-.88,2.55-3.26l.52-2.23c.02-.08,.06-.16,.12-.22l1.93-1.86c.08-.08,.2-.12,.31-.12Z"/>
    </g>
    <path class="cls-1" d="M399.75,227.43s-.02,0-.03,0c-.25-.02-.43-.23-.41-.47,.07-1.02,.77-3.02,2.87-3.75-.48-1.6-.55-3.21-.19-4.73,.44-1.8,1.5-3.33,2.84-4.08,1.06-.59,1.95-.74,2.65-.43,.82,.36,1.03,1.2,1.04,1.23,.1,3.99,3.13,7.42,3.16,7.45,.17,.18,.15,.46-.04,.63-.18,.16-.46,.15-.63-.03-.13-.15-3.28-3.71-3.37-7.92h0s-.14-.38-.52-.54c-.42-.18-1.06-.04-1.84,.4-1.13,.63-2.03,1.95-2.41,3.51-.54,2.24-.02,4.74,1.49,7.04,.14,.21,.08,.48-.13,.62-.2,.13-.48,.08-.62-.13-.46-.71-.84-1.44-1.13-2.17-2.09,.72-2.27,2.95-2.27,2.97-.01,.24-.21,.42-.44,.42Zm-14.63-7.78c-.12,0-.24-.05-.33-.14-.17-.18-.15-.46,.03-.63,0,0,.97-.89,1.87-1.89,.92-1.01,3.3-3.41,3.46-3.57l1.51-1.63c.17-.18,.45-.19,.63-.02,.18,.17,.19,.45,.02,.63l-1.04,1.12,4.95,1.65c.46-.6,1.03-1.25,1.75-1.93l-3.9-4.24c-1.1,.61-4.84,2.67-5.71,3.14-1.1,.6-2.33,.69-2.39,.7-.24,0-.46-.17-.47-.41s.17-.46,.41-.48c0,0,1.1-.09,2.02-.59,1.02-.56,6.01-3.31,6.01-3.31,.18-.1,.4-.06,.54,.09l4.14,4.5c.66-.58,1.42-1.18,2.29-1.8,.2-.14,.48-.09,.62,.11,.14,.2,.09,.48-.11,.62-5.77,4.05-6.2,7.51-6.2,7.54-.03,.25-.24,.42-.49,.4-.24-.02-.42-.24-.4-.48,0-.09,.14-1.29,1.34-3.1l-5.08-1.69c-.61,.62-2.48,2.51-3.24,3.36-.94,1.03-1.89,1.91-1.93,1.94-.08,.08-.19,.12-.3,.12Zm5.51-1.35c-.11,0-.22-.04-.31-.13-.18-.17-.18-.45-.01-.63l.81-.84c.17-.18,.46-.18,.63,0,.18,.17,.18,.45,0,.63l-.82,.84c-.09,.09-.2,.14-.32,.14Z"/>
  </g>
  <g>
    <path class="cls-2" d="M405.39,203.25c4.88,0,8.87-3.98,8.87-8.87s-3.98-8.86-8.87-8.86-8.86,3.98-8.86,8.86,3.98,8.87,8.86,8.87Z"/>
    <path class="cls-1" d="M405.39,203.69c-5.13,0-9.31-4.18-9.31-9.31s4.18-9.31,9.31-9.31,9.31,4.18,9.31,9.31-4.18,9.31-9.31,9.31Zm0-17.73c-4.64,0-8.42,3.78-8.42,8.42s3.78,8.42,8.42,8.42,8.42-3.78,8.42-8.42-3.78-8.42-8.42-8.42Z"/>
  </g>
  <path class="cls-2" d="M403.85,196.1l3.43-6.85c.09-.18,.31-.25,.49-.16l2.45,1.49c.18,.09,.25,.31,.17,.49l-5.34,8.45c-.05,.1-.12,.16-.23,.19-.1,.03-.2,.01-.29-.05l-3.99-2.76c-.17-.11-.21-.34-.1-.5l.65-1.68c.11-.16,.34-.21,.5-.1l2.27,1.51Z"/>
</svg>